<svg width="123" height="80" viewBox="0 0 123 80" fill="none" xmlns="http://www.w3.org/2000/svg">
<g clip-path="url(#clip0_3190_8364)">
<path d="M96.5323 45.2621C97.1873 43.5522 97.5323 41.6873 97.4973 39.7374C97.3573 31.6229 90.5477 25.2033 82.4332 25.2033H69.009C58.0446 25.2033 48.5053 31.4279 43.7456 40.5323C43.4756 41.0423 42.7107 40.8623 42.7107 40.2874V26.3032C42.7107 19.3437 48.3553 13.699 55.3149 13.699H82.4032C93.0825 13.699 101.997 22.1735 102.157 32.8528C102.232 37.7975 100.452 42.3322 97.4673 45.807C97.0723 46.267 96.3223 45.827 96.5373 45.2621" fill="#1A1A1A"/>
<path d="M97.7622 48.6868C101.787 44.7821 104.307 39.3324 104.347 33.3078C104.432 21.3186 94.3675 11.5142 82.3783 11.5142H55.3099C50.5951 11.5142 46.3904 13.729 43.6806 17.1738C43.3606 17.5788 42.7057 17.3488 42.7057 16.8338V12.6141C42.7057 5.64953 48.3503 0.00488281 55.3099 0.00488281H85.768C100.287 0.00488281 112.476 11.8791 112.426 26.3982C112.391 36.4326 106.707 45.1571 98.3972 49.5618C97.8322 49.8618 97.2972 49.1318 97.7572 48.6868" fill="#1A1A1A"/>
<path d="M100.072 52.3516C99.4721 52.4366 99.2122 51.6217 99.7422 51.3317C108.597 46.492 114.616 37.0926 114.616 26.3082C114.616 15.5239 108.597 6.1245 99.7422 1.2848C99.2122 0.994821 99.4721 0.179872 100.072 0.264867C112.841 2.05475 122.701 13.0541 122.701 26.3082C122.701 39.5624 112.846 50.5617 100.072 52.3516Z" fill="#1A1A1A"/>
<path d="M39.1458 16.8288C39.1458 17.3438 38.4909 17.5788 38.1709 17.1688C35.4611 13.724 31.2563 11.5092 26.5416 11.5092H0.788174C0.488193 11.5092 0.238281 11.2642 0.238281 10.9592V0.554848C0.238281 0.249868 0.483193 0.00488281 0.788174 0.00488281H26.5416C33.5012 0.00488281 39.1408 5.64453 39.1408 12.6091V16.8288H39.1458Z" fill="#1A1A1A"/>
<path d="M39.1458 40.2874C39.1458 40.8623 38.3759 41.0473 38.111 40.5323C33.3513 31.4329 23.8118 25.2033 12.8475 25.2033H0.793179C0.493197 25.2033 0.243286 24.9583 0.243286 24.6533V14.249C0.243286 13.949 0.488198 13.699 0.793179 13.699H26.5466C33.5062 13.699 39.1458 19.3437 39.1458 26.3032V40.2874Z" fill="#1A1A1A"/>
<path d="M83.0081 66.3007C72.3287 66.3007 63.4144 57.8263 63.2544 47.1469C63.1794 42.2022 64.9592 37.6675 67.9441 34.1927C68.339 33.7328 69.094 34.1727 68.8741 34.7377C68.2191 36.4476 67.874 38.3125 67.909 40.2624C68.049 48.3769 74.8587 54.7965 82.9732 54.7965H96.3973C107.362 54.7965 116.901 48.5718 121.661 39.4674C121.926 38.9575 122.696 39.1374 122.696 39.7124V53.6965C122.696 60.6561 117.056 66.3007 110.091 66.3007H83.0032H83.0081Z" fill="#1A1A1A"/>
<path d="M79.6384 79.9999C65.1192 79.9999 52.9301 68.1256 52.9801 53.6065C53.0151 43.5722 58.6947 34.8477 67.0042 30.443C67.5692 30.143 68.1041 30.873 67.6441 31.3179C63.6193 35.2227 61.0995 40.6723 61.0595 46.697C60.9745 58.6862 71.0389 68.4906 83.0282 68.4906H110.097C114.811 68.4906 119.016 66.2757 121.726 62.831C122.046 62.426 122.701 62.656 122.701 63.1709V67.3907C122.701 74.3502 117.056 79.9949 110.102 79.9949H79.6384V79.9999Z" fill="#1A1A1A"/>
<path d="M65.6642 78.72C66.1942 79.0099 65.9342 79.8249 65.3343 79.7449C52.565 77.955 42.7057 66.9557 42.7057 53.7015C42.7057 40.4474 52.5601 29.448 65.3343 27.6582C65.9342 27.5732 66.1942 28.3881 65.6642 28.6781C56.8097 33.5178 50.7901 42.9172 50.7901 53.7015C50.7901 64.4859 56.8097 73.8853 65.6642 78.725" fill="#1A1A1A"/>
<path d="M14.4874 79.9999C14.1874 79.9999 13.9374 79.7549 13.9374 79.4499V40.0024C13.9374 38.1475 13.5974 36.3776 12.9725 34.7377C12.7575 34.1677 13.5024 33.7228 13.8974 34.1877C16.8222 37.5925 18.5921 42.0173 18.5921 46.847V79.4499C18.5921 79.7549 18.3471 79.9999 18.0421 79.9999H14.4824H14.4874Z" fill="#1A1A1A"/>
<path d="M21.337 79.9999C21.037 79.9999 20.7869 79.7549 20.7869 79.4499V46.852C20.7869 40.7623 18.2571 35.2527 14.1974 31.3129C13.7474 30.878 14.2774 30.143 14.8324 30.438C23.1718 34.8527 28.8715 43.6222 28.8715 53.7015V79.4549C28.8715 79.7599 28.6265 80.0049 28.3215 80.0049H21.337V79.9999Z" fill="#1A1A1A"/>
<path d="M31.0613 53.7015C31.0613 42.9222 25.0417 33.5178 16.1872 28.6781C15.6573 28.3881 15.9172 27.5732 16.5172 27.6582C29.2864 29.448 39.1458 40.4474 39.1458 53.7015V70.8255C39.1458 75.2902 35.946 79.0199 31.7163 79.8349C31.3813 79.8999 31.0663 79.6399 31.0663 79.2949V53.7015H31.0613Z" fill="#1A1A1A"/>
</g>
<defs>
<clipPath id="clip0_3190_8364">
<rect width="123" height="80" fill="white"/>
</clipPath>
</defs>
</svg>
